<?xml version="1.0" encoding="UTF-8" standalone="no"?>
<!-- Created with Inkscape (http://www.inkscape.org/) -->
<!--
width="450"
height="388"
-->
<svg
   xmlns:dc="http://purl.org/dc/elements/1.1/"
   xmlns:cc="http://web.resource.org/cc/"
   xmlns:rdf="http://www.w3.org/1999/02/22-rdf-syntax-ns#"
   xmlns:svg="http://www.w3.org/2000/svg"
   xmlns="http://www.w3.org/2000/svg"
   xmlns:sodipodi="http://inkscape.sourceforge.net/DTD/sodipodi-0.dtd"
   xmlns:inkscape="http://www.inkscape.org/namespaces/inkscape"
   id="svg4090"
   sodipodi:version="0.32"
   inkscape:version="0.43"
   width="450"
   height="388"
   sodipodi:docbase="C:\Documents and Settings\Owner\Desktop\SVG"
   sodipodi:docname="Aiga_customs.svg"
   version="1.0">
  <metadata
     id="metadata4095">
    <rdf:RDF>
      <cc:Work
         rdf:about="">
        <dc:format>image/svg+xml</dc:format>
        <dc:type
           rdf:resource="http://purl.org/dc/dcmitype/StillImage" />
      </cc:Work>
    </rdf:RDF>
  </metadata>
  <defs
     id="defs4093" />
  <sodipodi:namedview
     inkscape:window-height="543"
     inkscape:window-width="756"
     inkscape:pageshadow="2"
     inkscape:pageopacity="0.0"
     borderopacity="1.0"
     bordercolor="#666666"
     pagecolor="#ffffff"
     id="base"
     inkscape:zoom="0.35254022"
     inkscape:cx="372.04724"
     inkscape:cy="183.86835"
     inkscape:window-x="319"
     inkscape:window-y="15"
     inkscape:current-layer="svg4090" />
  <!--
  <path
     id="path4103"
     d="M 139.66209,306.49192 L 239.10672,172.26367 L 326.46928,101.6056 L 293.25046,34.038645 L 382.26889,28.365534 L 381.38306,92.043122 L 359.28966,164.65505 L 421.98067,162.97098 L 430.49034,382.67309 L 233.68279,382.67309 L 161.68368,354.30753 L 139.66209,306.49192 z "
     style="fill:#ffffff;fill-opacity:1"
     sodipodi:nodetypes="cccccccccccc" />
     -->
  <path
     id="path4101"
     d="M 75.009672,382.61379 C 70.054432,380.31959 66.146662,376.24109 63.891292,371.00965 C 62.531362,367.85522 62.072342,363.06543 61.719882,348.35141 L 61.272952,329.69318 L 42.641312,329.33263 C 26.912992,329.02827 23.464272,328.68409 20.509672,327.1239 C 15.631802,324.54811 12.633702,321.63105 10.412352,317.29949 C 8.590392,313.74674 8.510362,310.33129 8.526122,236.79949 L 8.542572,160.00965 L 10.784602,156.05124 C 13.750462,150.81488 19.764632,146.75659 26.396162,145.51673 C 33.453202,144.19732 58.095412,144.21758 60.575412,145.54483 C 62.465992,146.55664 62.509672,148.63404 62.509672,237.54483 L 62.509672,328.50965 L 152.25968,328.52496 C 201.62218,328.53338 242.6074,328.91921 243.33794,329.38235 C 244.38671,330.04723 244.59712,334.30497 244.33794,349.61703 C 244.01485,368.70405 243.96628,369.08347 241.25582,373.6943 C 238.26789,378.77715 234.91829,381.55638 229.61046,383.3567 C 227.16282,384.18689 205.60719,384.5035 152.61046,384.48769 C 83.104062,384.46695 78.787152,384.3627 75.009672,382.61379 z M 268.50968,357.11664 C 268.50968,333.06029 268.70235,329.64969 270.09147,329.11664 C 270.96145,328.78279 300.0003,328.50965 334.62225,328.50965 L 397.57124,328.50965 L 397.29046,316.25965 L 397.00968,304.00965 L 346.75968,303.7504 C 315.77388,303.59054 296.50968,303.12595 296.50968,302.53853 C 296.50968,302.01459 322.55603,266.58125 354.39046,223.79778 L 412.27125,146.00965 L 416.96296,146.17777 C 430.23731,146.65343 442.40575,159.1427 445.50203,175.4693 C 446.13753,178.82028 446.50968,218.40344 446.50968,282.64614 L 446.50968,384.50965 L 357.50968,384.50965 L 268.50968,384.50965 L 268.50968,357.11664 z M 147.96881,321.14278 C 142.5785,318.63272 138.0442,314.00844 135.85814,308.79177 C 133.78891,303.8539 134.15123,295.13259 136.62722,290.27925 C 137.79187,287.99635 161.43161,256.55173 189.15998,220.40231 C 243.75916,149.22146 242.86837,150.21408 254.97967,147.05948 C 263.83218,144.7537 382.8267,144.71489 382.333,147.01795 C 381.87672,149.14649 270.60594,296.50965 269.45501,296.50965 C 268.87386,296.50965 268.50968,277.27043 268.50968,246.56867 C 268.50968,218.51553 268.12011,196.38691 267.6208,196.07833 C 267.13192,195.77618 246.82168,221.96212 222.48695,254.26931 C 198.15221,286.5765 176.83971,314.51158 175.12583,316.34728 C 168.10749,323.86445 157.74365,325.69454 147.96881,321.14278 z M 332.00968,130.42212 C 310.90381,127.68424 293.95413,111.30674 290.55658,90.368387 C 289.9891,86.871077 289.52139,83.687367 289.51723,83.293477 C 289.51308,82.899587 284.70879,82.449587 278.84103,82.293477 C 272.69792,82.130047 268.02828,81.574807 267.83267,80.984547 C 267.64582,80.420747 271.66834,74.795747 276.7716,68.484544 L 286.05025,57.009644 L 337.02997,57.009644 L 388.00968,57.009644 L 388.29953,70.009647 C 388.66227,86.279127 387.28618,94.688797 382.7909,103.67434 C 373.44299,122.35971 352.97343,133.14156 332.00968,130.42212 z M 285.31253,44.259644 C 283.69803,42.981874 264.73292,15.830048 262.6118,11.759644 L 261.43931,9.5096438 L 324.35786,9.5096438 L 387.27642,9.5096438 L 387.87939,11.759644 C 388.90285,15.578657 388.57267,41.523434 387.4745,43.575384 C 386.47233,45.447954 384.85196,45.509644 336.66563,45.509644 C 298.35569,45.509644 286.52817,45.221744 285.31253,44.259644 z "
     style="fill:#000000" />
</svg>
