<svg width="171" height="171" viewBox="0 0 171 171" fill="none" xmlns="http://www.w3.org/2000/svg">
<path d="M156.749 32.0607H147.847V23.1532V14.2512H138.939H130.032V5.34375H121.124H112.217H103.315H94.4075H85.5H76.5925H67.6851H58.7831H49.8756H40.9681V14.2512H32.0607H23.1532V23.1532V32.0607H14.2457H5.34375V40.9681V49.8756V58.7831V67.6851V76.5925V85.5V94.4075V103.315V112.217V121.124V130.032V138.939H14.2457H23.1532V147.847V156.749H32.0607H40.9681V165.656H49.8756H58.7831H67.6851H76.5925H85.5H94.4075H103.315H112.217H121.124H130.032V156.749H138.939H147.847V147.847V138.939H156.749H165.656V130.032V121.124V112.217V103.315V94.4075V85.5V76.5925V67.6851V58.7831V49.8756V40.9681V32.0607H156.749Z" fill="#F5BB03"/>
<path d="M40.9673 147.849H23.1523V156.756H40.9673V147.849Z" fill="#1D1D1B"/>
<path d="M130.163 5.34375H40.9609V14.2512H130.163V5.34375Z" fill="#7A2C00"/>
<path d="M130.028 49.8767V58.7842H121.126V64.3493V67.6862H112.218V73.2568H112.213V76.5992H103.316V81.0501H103.311V85.5011H94.4035V91.0662V94.4141H85.5015V99.9737H85.496V103.316H76.5885V112.218V112.229H67.681V108.881V103.316H58.7791V97.7455H58.768V94.4141H49.8771V89.9521H49.8716V85.5011H40.9641V76.5936H32.0622V83.2729H32.0566V94.4086H36.5131H40.9586H40.9696V103.316H46.5292H49.8771V112.218H56.5508H58.7791V121.12H64.3442V121.126H67.681V130.033H76.583V121.126H76.5885H79.9309H85.496V112.218H91.0611H94.398V103.316H94.4035H98.8545H103.311V94.4086H112.207V85.5011H112.213H117.784H121.12V76.5936H121.126H130.028V67.6862H134.479V67.6806H138.935V63.2352V58.7842V49.8767H130.028Z" fill="white"/>
<path d="M40.8316 14.2521H31.9296H23.0332V20.5287V23.1485V32.056H31.9407V23.1485H40.8316H40.9695V14.2521H40.8316Z" fill="#1D1D1B"/>
<path d="M23.1477 40.9677V32.0657H14.2402V32.0602H5.34375V138.939H8.67509H14.2402H23.1477V130.031H14.2402V40.9677H23.1477Z" fill="#1D1D1B"/>
<path d="M32.0598 138.938V130.036H23.1523V138.938V147.846H27.6088H32.0598H40.9618V138.938H32.0598Z" fill="#7A2C00"/>
<path d="M23.1712 121.124H14.2637V130.031H23.1712V121.124Z" fill="#7A2C00"/>
<path d="M130.028 147.849H40.8262V156.751H130.028V147.849Z" fill="#7A2C00"/>
<path d="M130.028 156.749H40.8262V165.651H130.028V156.749Z" fill="#1D1D1B"/>
<path d="M138.943 130.032V138.94H130.035V147.847H147.85V142.277V138.94V130.032H138.943Z" fill="#7A2C00"/>
<path d="M147.85 147.849H130.035V156.756H147.85V147.849Z" fill="#1D1D1B"/>
<path d="M165.657 130.032H147.842V138.94H165.657V130.032Z" fill="#1D1D1B"/>
<path d="M165.651 112.217V32.0602H162.314H156.744H147.842V40.9621H156.744V112.217V121.118V121.124H147.842V130.031H165.651V124.466V121.124V112.217Z" fill="#7A2C00"/>
<path d="M143.394 14.2521H138.943H130.035V23.1485H138.943V32.0615H147.85V14.2521H143.394Z" fill="#7A2C00"/>
</svg>
