<svg width="26" height="26" viewBox="0 0 26 26" fill="none" xmlns="http://www.w3.org/2000/svg">
<path d="M13 0.8125C10.5895 0.8125 8.23322 1.52728 6.22899 2.86646C4.22477 4.20564 2.66267 6.10907 1.74022 8.33605C0.817781 10.563 0.576427 13.0135 1.04668 15.3777C1.51694 17.7418 2.67769 19.9134 4.38214 21.6179C6.08659 23.3223 8.2582 24.4831 10.6223 24.9533C12.9865 25.4236 15.437 25.1822 17.664 24.2598C19.8909 23.3373 21.7944 21.7752 23.1335 19.771C24.4727 17.7668 25.1875 15.4105 25.1875 13C25.1875 9.76767 23.9035 6.66774 21.6179 4.38214C19.3323 2.09654 16.2323 0.8125 13 0.8125ZM10.9931 18.2569L6.11813 13.3819L7.78376 11.7569L10.9688 14.9419L18.1675 7.735L19.8331 9.40063L10.9931 18.2569Z" fill="#6D951D"/>
</svg>
