<svg width="24" height="24" viewBox="0 0 24 24" fill="none" xmlns="http://www.w3.org/2000/svg">
<path fill-rule="evenodd" clip-rule="evenodd" d="M17.37 12.33V8.385H20.295L22.095 12.3375H17.3775L17.37 12.33ZM7.2675 20.2575C6.2175 20.2575 5.37 19.41 5.37 18.36C5.37 17.31 6.2175 16.4625 7.2675 16.4625C8.3175 16.4625 9.165 17.31 9.165 18.36C9.165 19.41 8.3175 20.2575 7.2675 20.2575ZM0.75 15.6375H5.9025C4.905 16.14 4.2225 17.1675 4.2225 18.36H0.75V15.6375V15.6375ZM8.6325 15.6375H16.2225V7.2375H20.76C20.985 7.2375 21.075 7.335 21.135 7.4625L23.13 11.85C23.22 12.0375 23.2425 12.495 23.25 12.6375V18.36H22.35C22.35 16.59 20.985 15.33 19.305 15.33C17.625 15.33 16.26 16.6725 16.26 18.36H10.32C10.32 17.1675 9.6375 16.14 8.64 15.6375H8.6325ZM19.2975 20.28C18.2475 20.28 17.4 19.4325 17.4 18.3825C17.4 17.3325 18.2475 16.485 19.2975 16.485C20.3475 16.485 21.195 17.3325 21.195 18.3825C21.195 19.4325 20.3475 20.28 19.2975 20.28ZM15.0675 14.49H0.75V3.75H15.075V14.49H15.0675Z" fill="#232322"/>
</svg>
