<svg width="107" height="24" viewBox="0 0 107 24" fill="none" xmlns="http://www.w3.org/2000/svg">
<path d="M0 23.8367H3.9744V7.94873H0V23.8367Z" fill="#808079"/>
<path d="M11.9238 7.94873H15.8886V19.8623H11.9238V7.94873Z" fill="#808079"/>
<path d="M19.8618 3.75H27.8106V7.7244H19.8618V3.75Z" fill="#808079"/>
<path d="M19.8618 11.689H27.8106V15.6634H19.8618V11.689Z" fill="#808079"/>
<path d="M19.8618 19.8625H27.8106V23.8369H19.8618V19.8625Z" fill="#808079"/>
<path d="M31.7856 7.94873H35.76V19.8623H31.7856V7.94873Z" fill="#808079"/>
<path d="M35.7598 3.97461H43.699V7.93941H35.7598V3.97461Z" fill="#808079"/>
<path d="M35.7598 19.8625H43.699V23.8369H35.7598V19.8625Z" fill="#808079"/>
<path d="M39.7251 11.9136V15.888H43.6995V19.8624H47.6739V15.888V11.9424V11.9136H39.7251Z" fill="#808079"/>
<path d="M51.6475 3.97461H59.5867V7.93941H51.6475V3.97461Z" fill="#808079"/>
<path d="M51.6475 11.9136H59.5867V15.888H51.6475V11.9136Z" fill="#808079"/>
<path d="M51.6475 19.8625H59.5867V23.8369H51.6475V19.8625Z" fill="#808079"/>
<path d="M11.9238 0H15.8886V3.9744H11.9238V0Z" fill="#808079"/>
<path d="M3.97412 3.97461H11.9229V7.94901H3.97412V3.97461Z" fill="#808079"/>
<path d="M69.3498 17.9521C69.1386 17.3089 68.8506 16.5313 67.7562 16.5313C66.6618 16.5313 66.4314 17.3569 66.4314 17.7697C66.4314 18.6049 67.0842 18.8641 68.1882 19.2865C69.1098 19.6417 70.4442 20.1505 70.4442 21.6769C70.4442 22.6657 69.7818 24.0001 67.9098 24.0001C67.2282 24.0001 66.4602 23.7985 65.9514 23.3377C65.4426 22.8769 65.2506 22.1761 65.1738 21.7441L66.0474 21.4945C66.1722 22.0225 66.441 23.1937 67.929 23.1937C69.129 23.1937 69.4458 22.3585 69.4458 21.8305C69.4458 20.8897 68.6394 20.5441 67.881 20.2561C66.969 19.9009 66.5946 19.7569 66.1818 19.3921C65.9667 19.1896 65.7947 18.9458 65.6759 18.6753C65.5572 18.4048 65.4941 18.1131 65.4906 17.8177C65.4906 16.8481 66.1914 15.7153 67.833 15.7153C69.6282 15.7153 70.041 17.1265 70.2042 17.6929L69.3498 17.9521Z" fill="#808079"/>
<path d="M72.7001 20.899C72.7001 21.571 72.7577 23.2702 73.9865 23.2702C75.2153 23.2702 75.2729 21.571 75.2729 20.899C75.2729 20.227 75.2441 18.5182 73.9865 18.5182C72.7289 18.5182 72.7001 20.3038 72.7001 20.899ZM76.2329 20.8318C76.2329 21.8686 76.0697 23.9998 73.9673 23.9998C72.1529 23.9998 71.7305 22.2718 71.7305 20.899C71.7305 19.7086 72.0185 17.7886 74.0057 17.7886C75.9929 17.7886 76.2329 19.5934 76.2329 20.8318Z" fill="#808079"/>
<path d="M79.8817 17.9613V18.6717H78.8065V23.8365H77.9425V18.6717H77.0977V17.9613H77.9425C77.9617 16.7805 77.9809 15.7149 79.4977 15.7149C79.7241 15.71 79.9502 15.7359 80.1697 15.7917V16.5021C80.035 16.4658 79.8963 16.4464 79.7569 16.4445C78.8737 16.4445 78.8065 16.8669 78.8065 17.9613H79.8817Z" fill="#808079"/>
<path d="M82.6657 16.5024V17.9616H83.8081V18.672H82.6657V21.6288C82.6657 22.7616 82.6657 23.2416 83.5681 23.2416C83.7462 23.2426 83.9238 23.22 84.0961 23.1744V23.9136C83.8307 23.9688 83.5606 23.9978 83.2897 24C81.8017 24 81.8017 23.0496 81.8017 21.6288V18.672H80.9473V17.9616H81.8017V16.5888L82.6657 16.5024Z" fill="#808079"/>
<path d="M85.8243 17.9614L86.8323 22.3678L87.8307 17.9614H88.4643L89.5491 22.4158L90.5955 17.9614H91.3251L89.8851 23.8366H89.1459L88.1475 19.699L87.2067 23.8366H86.4291L84.9507 17.9614H85.8243Z" fill="#808079"/>
<path d="M94.9543 20.8415C93.7447 20.8415 93.1975 21.3119 93.1975 22.2623C93.1975 22.8671 93.4951 23.2703 94.1767 23.2703C94.8583 23.2703 95.1463 22.9439 95.3767 22.5215C95.6071 22.0991 95.6647 21.5423 95.6263 20.9183C95.4057 20.8686 95.1804 20.8428 94.9543 20.8415ZM92.5063 19.3055C92.5639 19.0175 92.6983 18.4319 93.4663 18.0383C93.8167 17.8704 94.2009 17.785 94.5895 17.7887C95.2999 17.7887 95.8471 18.0383 96.1447 18.4127C96.4423 18.7871 96.4999 19.5551 96.4999 20.2271V21.9551C96.4999 23.1263 96.5095 23.3663 96.6055 23.8367H95.7703C95.7198 23.4935 95.6973 23.1467 95.7031 22.7999C95.4631 23.2607 95.0791 23.9999 94.0135 23.9999C92.9479 23.9999 92.2855 23.3183 92.2855 22.2335C92.2771 21.7603 92.4332 21.2989 92.7271 20.9279C93.1687 20.3999 93.8887 20.1791 94.8583 20.1791C95.1151 20.1766 95.3718 20.1926 95.6263 20.2271V19.9775C95.6263 19.5551 95.6263 18.5183 94.5319 18.5183C93.6199 18.5183 93.4375 19.1999 93.3703 19.4495L92.5063 19.3055Z" fill="#808079"/>
<path d="M99.2166 17.9616V19.1904C99.3798 18.768 99.783 17.7216 100.906 17.808V18.7776C99.9462 18.672 99.3126 19.344 99.3126 20.7936V23.8368H98.439V17.9616H99.2166Z" fill="#808079"/>
<path d="M105.053 20.2942C105.053 19.411 104.774 18.5182 103.853 18.5182C102.931 18.5182 102.691 19.459 102.624 20.2942H105.053ZM102.576 21.0142C102.576 21.523 102.566 23.2702 103.949 23.2702C104.774 23.2702 105.005 22.5502 105.139 22.0894L105.955 22.2814C105.59 23.6542 104.745 23.9998 103.891 23.9998C102.221 23.9998 101.654 22.5214 101.654 20.9854C101.654 18.7774 102.701 17.7886 103.949 17.7886C105.197 17.7886 106.003 18.8062 106.041 21.0142H102.576Z" fill="#808079"/>
<path d="M66.6151 4.7614V7.651H67.8151C68.9383 7.651 69.3607 6.979 69.3607 6.1246C69.3607 4.9822 68.4871 4.7614 67.8823 4.7614H66.6151ZM67.9591 3.9646C68.0935 3.9646 69.0055 3.9742 69.5623 4.4062C69.9463 4.6942 70.3303 5.2606 70.3303 6.1342C70.3303 7.5742 69.3607 8.0542 69.0151 8.2174L70.5127 11.9134H69.4663L68.1319 8.4478H66.6151V11.9134H65.6455V3.9646H67.9591Z" fill="#808079"/>
<path d="M73.0269 6.03845V11.9136H72.1629V6.03845H73.0269ZM72.1245 5.00165V3.99365H73.0653V5.00165H72.1245Z" fill="#808079"/>
<path d="M78.1632 8.371C78.1632 7.4974 77.8944 6.595 76.9632 6.595C76.032 6.595 75.8112 7.5358 75.7344 8.371H78.1632ZM75.6864 9.091C75.6864 9.5998 75.6768 11.3566 77.0592 11.3566C77.8944 11.3566 78.1152 10.627 78.2496 10.1758L79.0752 10.3678C78.7008 11.731 77.856 12.0766 77.0112 12.0766C75.3312 12.0766 74.7744 10.5982 74.7744 9.0622C74.7744 6.8638 75.8208 5.875 77.0592 5.875C78.2976 5.875 79.1232 6.883 79.152 9.091H75.6864Z" fill="#808079"/>
<path d="M81.6772 7.92003C81.6772 8.94723 82.2916 9.23523 82.7236 9.23523C83.1556 9.23523 83.7988 8.79363 83.7988 7.92003C83.7988 7.31523 83.5012 6.59523 82.7716 6.59523C81.7444 6.59523 81.6772 7.58403 81.6772 7.92003ZM81.3412 12.4608C81.3412 13.248 81.9652 13.4496 82.858 13.4496C83.3572 13.4496 84.394 13.3632 84.394 12.4896C84.394 12.2304 84.3172 11.9136 83.8852 11.7792C83.6644 11.7216 83.4724 11.712 81.8404 11.664C81.6676 11.7792 81.3412 11.9712 81.3412 12.4608ZM85.0948 5.85603C85.0156 5.84153 84.9352 5.8351 84.8548 5.83683C84.4036 5.83683 84.2884 6.19203 84.2404 6.57603C84.5317 6.95635 84.6902 7.42175 84.6916 7.90083C84.6916 8.76483 84.1348 9.90723 82.714 9.90723C82.467 9.9075 82.2212 9.87193 81.9844 9.80162C81.7732 9.87842 81.4948 9.97443 81.4948 10.3488C81.4948 10.8768 81.8308 10.8864 83.05 10.944C84.2692 11.0016 85.2868 11.0688 85.2868 12.4512C85.2868 14.0544 83.3668 14.1504 82.8004 14.1504C82.042 14.1504 80.458 13.9968 80.458 12.6144C80.458 11.7312 80.9956 11.5296 81.2356 11.4528C81.0052 11.2896 80.6884 11.0688 80.6884 10.5312C80.6884 9.99363 80.9572 9.65763 81.4468 9.44643C81.1972 9.20643 80.7748 8.79363 80.7748 7.90083C80.7748 6.68163 81.7252 5.87523 82.7332 5.87523C83.0752 5.87601 83.4117 5.96178 83.7124 6.12483C83.914 5.10723 84.4036 5.10723 85.0948 5.12643V5.85603Z" fill="#808079"/>
<path d="M89.4726 8.371C89.4726 7.4974 89.2038 6.595 88.2726 6.595C87.3414 6.595 87.111 7.5358 87.0438 8.371H89.4726ZM86.9958 9.091C86.9958 9.5998 86.9862 11.3566 88.3686 11.3566C89.2038 11.3566 89.4246 10.627 89.559 10.1758L90.375 10.3678C90.0102 11.731 89.1654 12.0766 88.3206 12.0766C86.6406 12.0766 86.0742 10.5982 86.0742 9.0622C86.0742 6.8638 87.1302 5.875 88.3686 5.875C89.607 5.875 90.423 6.883 90.4614 9.091H86.9958Z" fill="#808079"/>
</svg>
